<?xml version="1.0" encoding="UTF-8" standalone="no"?>
<svg
   width="24"
   height="24"
   viewBox="0 0 24 24"
   fill="none"
   stroke="currentColor"
   stroke-width="2"
   stroke-linecap="round"
   stroke-linejoin="round"
   version="1.1"
   id="svg24"
   xmlns="http://www.w3.org/2000/svg"
   xmlns:svg="http://www.w3.org/2000/svg">
  <defs
     id="defs28" />
  <path
     id="rect2-7"
     style="fill:#c0c0c0;stroke:none"
     d="m 6,4 h 12 c 1.108,0 2,0.892 2,2 v 12 c 0,1.108 -0.892,2 -2,2 L 14.002886,20.046875 13.99569,10.002417 3.9765625,10.002792 4,6 C 4.0064875,4.892019 4.892,4 6,4 Z" />
  <path
     style="fill:none"
     d="M 4,9 V 6 C 4,4.892 4.892,4 6,4 h 12 c 1.108,0 2,0.892 2,2 v 12 c 0,1.108 -0.892,2 -2,2 h -3"
     id="rect2" />
  <rect
     x="9"
     y="9"
     width="6"
     height="6"
     id="rect4"
     style="fill:#c0c0c0;fill-opacity:1" />
  <path
     d="M15 2v2"
     id="path6" />
  <path
     d="M15 20v2"
     id="path8" />
  <path
     d="M2 9h2"
     id="path10" />
  <path
     d="M20 15h2"
     id="path12" />
  <path
     d="M20 9h2"
     id="path14" />
  <path
     d="M9 2v2"
     id="path16" />
  <path
     d="M3 13.1a2 2 0 0 0-1 1.76v3.24a2 2 0 0 0 .97 1.78L6 21.7a2 2 0 0 0 2.03.01L11 19.9a2 2 0 0 0 1-1.76V14.9a2 2 0 0 0-.97-1.78L8 11.3a2 2 0 0 0-2.03-.01Z"
     id="path20"
     style="fill:#55ddff" />
  <path
     d="M11.7 14.2 7 17l-4.7-2.8"
     id="path18" />
  <path
     d="M7 17v5"
     id="path22" />
</svg>
