<?xml version="1.0" encoding="UTF-8" standalone="no"?>
<svg
   width="24"
   height="24"
   viewBox="0 0 24 24"
   fill="none"
   stroke="currentColor"
   stroke-width="2"
   stroke-linecap="round"
   stroke-linejoin="round"
   version="1.1"
   id="svg24"
   sodipodi:docname="app_icon_package_24_open_full.svg"
   inkscape:version="1.1.2 (b8e25be833, 2022-02-05)"
   xmlns:inkscape="http://www.inkscape.org/namespaces/inkscape"
   xmlns:sodipodi="http://sodipodi.sourceforge.net/DTD/sodipodi-0.dtd"
   xmlns="http://www.w3.org/2000/svg"
   xmlns:svg="http://www.w3.org/2000/svg">
  <sodipodi:namedview
     id="namedview17"
     pagecolor="#ffffff"
     bordercolor="#666666"
     borderopacity="1.0"
     inkscape:pageshadow="2"
     inkscape:pageopacity="0.0"
     inkscape:pagecheckerboard="0"
     showgrid="false"
     inkscape:zoom="32"
     inkscape:cx="11.96875"
     inkscape:cy="12.671875"
     inkscape:window-width="1271"
     inkscape:window-height="1082"
     inkscape:window-x="1576"
     inkscape:window-y="801"
     inkscape:window-maximized="0"
     inkscape:current-layer="svg24" />
  <defs
     id="defs28" />
  <path
     id="rect2-7"
     style="fill:#c0c0c0;stroke:none"
     d="m 6,4 h 12 c 1.108,0 2,0.892 2,2 v 12 c 0,1.108 -0.892,2 -2,2 L 14.002886,20.046875 13.980065,10.029761 3.9765625,10.002792 4,6 C 4.0064875,4.892019 4.892,4 6,4 Z"
     sodipodi:nodetypes="ssssscccss" />
  <path
     style="fill:none"
     d="M 4,9 V 6 C 4,4.892 4.892,4 6,4 h 12 c 1.108,0 2,0.892 2,2 v 12 c 0,1.108 -0.892,2 -2,2 h -3"
     id="rect2"
     sodipodi:nodetypes="cssssssc" />
  <path
     id="rect4"
     d="m 9,9 h 6 v 6"
     sodipodi:nodetypes="ccc" />
  <path
     d="M15 2v2"
     id="path6" />
  <path
     d="M15 20v2"
     id="path8" />
  <path
     d="M2 9h2"
     id="path10" />
  <path
     d="M20 15h2"
     id="path12" />
  <path
     d="M20 9h2"
     id="path14" />
  <path
     d="M9 2v2"
     id="path16" />
  <path
     d="M3 13.1a2 2 0 0 0-1 1.76v3.24a2 2 0 0 0 .97 1.78L6 21.7a2 2 0 0 0 2.03.01L11 19.9a2 2 0 0 0 1-1.76V14.9a2 2 0 0 0-.97-1.78L8 11.3a2 2 0 0 0-2.03-.01Z"
     id="path20"
     style="fill:#5fbcd3" />
  <path
     d="M11.7 14.2 7 17l-4.7-2.8"
     id="path18" />
  <path
     d="M7 17v5"
     id="path22" />
</svg>
